# xmcd
#
# Track frame offsets:
# 150
# 23190
# 40315
# 54147
# 70927
# 99212
# 119055
# 138585
# 154522
# 179437
#
# Disc length: 2608 seconds
#
#
# Revision: 3
# Processed by: cddbd v1.4PL0 Copyright (c) Steve Scherf et al.
# Submitted via: FreeRIP 2.35 
#
DISCID=820a2e0a
DTITLE=Chi-Lites, The - The Chil-Lites Greatest Hits
DYEAR=1900
DGENRE=R&B
TTITLE0=Chi-Lites, The - Have You Seen  Her
TTITLE1=Chi-Lites, The - For God's Sake Give More To The People
TTITLE2=Chi-Lites, The - Stoned Out Of My Mind
TTITLE3=Chi-Lites, The - Oh Girl
TTITLE4=Chi-Lites, The - A Lonely Man
TTITLE5=Chi-Lites, The - The Coldest Days Of My Life (Part 1)
TTITLE6=Chi-Lites, The - I'm Ready If I Don't Get To Go
TTITLE7=Chi-Lites, The - Homely Girl
TTITLE8=Chi-Lites, The - A Letter To Myself
TTITLE9=Chi-Lites, The - We Are Neighbors
EXTD=
EXTT0=
EXTT1=
EXTT2=
EXTT3=
EXTT4=
EXTT5=
EXTT6=
EXTT7=
EXTT8=
EXTT9=
PLAYORDER=
